<svg xmlns="http://www.w3.org/2000/svg" width="172" height="172" viewBox="0 0 172 172" fill="none"><rect opacity="0.48" x="0.5" y="0.5" width="171" height="171" stroke="#520000" stroke-dasharray="2 2"/><path d="M73.7959 17.6771C80.3048 14.6957 84.6439 11.1898 86 9.80957C87.3562 11.1898 91.6953 14.6957 98.2042 17.6771C106.341 21.4038 109.189 25.5446 109.189 29.6854L109.424 29.7828C112.352 26.8549 117.294 25.9405 125.682 29.0586C132.392 31.553 137.94 32.1424 139.875 32.1252C139.858 34.0601 140.447 39.6075 142.942 46.3182C146.059 54.7066 145.145 59.6483 142.217 62.5762L142.315 62.8116C146.456 62.8116 150.597 65.6595 154.323 73.7959C157.304 80.3048 160.81 84.6439 162.191 86C160.81 87.3562 157.304 91.6953 154.323 98.2042C150.597 106.341 146.456 109.189 142.315 109.189L142.217 109.424C145.145 112.352 146.059 117.294 142.942 125.682C140.447 132.392 139.858 137.94 139.875 139.875C137.94 139.858 132.392 140.447 125.682 142.942C117.294 146.059 112.352 145.145 109.424 142.217L109.189 142.315C109.189 146.456 106.341 150.597 98.2042 154.323C91.6953 157.304 87.3562 160.81 86 162.191C84.6439 160.81 80.3048 157.304 73.7959 154.323C65.6595 150.597 62.8116 146.456 62.8116 142.315L62.5762 142.217C59.6483 145.145 54.7066 146.059 46.3182 142.942C39.6075 140.447 34.0601 139.858 32.1252 139.875C32.1424 137.94 31.553 132.392 29.0586 125.682C25.9405 117.294 26.8549 112.352 29.7828 109.424L29.6854 109.189C25.5446 109.189 21.4038 106.341 17.6771 98.2042C14.6957 91.6953 11.1898 87.3562 9.80957 86C11.1898 84.6439 14.6957 80.3048 17.6771 73.7959C21.4038 65.6595 25.5446 62.8116 29.6854 62.8116L29.7828 62.5762C26.8549 59.6483 25.9405 54.7066 29.0586 46.3182C31.553 39.6075 32.1424 34.0601 32.1252 32.1252C34.0601 32.1424 39.6075 31.553 46.3182 29.0586C54.7066 25.9405 59.6483 26.8549 62.5762 29.7828L62.8116 29.6854C62.8116 25.5446 65.6595 21.4038 73.7959 17.6771Z" fill="#9C2214"/><path d="M86.0003 139.333C115.456 139.333 139.334 115.455 139.334 86C139.334 56.5448 115.456 32.6666 86.0003 32.6666C56.5451 32.6666 32.667 56.5448 32.667 86C32.667 115.455 56.5451 139.333 86.0003 139.333Z" fill="#FFD447"/><path d="M85.9996 116.476C102.831 116.476 116.476 102.832 116.476 86C116.476 69.1685 102.831 55.5238 85.9996 55.5238C69.1681 55.5238 55.5234 69.1685 55.5234 86C55.5234 102.832 69.1681 116.476 85.9996 116.476Z" fill="white"/><path d="M43.2451 60.1402V111.86H47.3827V94.6202H51.5203V120.48H77.38V124.617H60.1403V128.755H111.86V124.617H94.6204V120.48H120.48V94.6202H124.617V111.86H128.755V60.1402H124.617V77.3798H120.48V51.5202H94.6204V47.3826H111.86V43.245H60.1403V47.3826H77.38V51.5202H51.5203V77.3798H47.3827V60.1402H43.2451Z" stroke="#9C2214" stroke-width="0.380952"/><path d="M37.4821 97.9466L74.0535 134.518L76.9792 131.592L64.7888 119.402L67.7145 116.476L86.0002 134.762L104.286 116.476L107.212 119.402L95.0211 131.592L97.9468 134.518L134.518 97.9466L131.593 95.0209L119.402 107.211L116.476 104.286L134.762 85.9999L116.476 67.7142L119.402 64.7885L131.593 76.979L134.518 74.0533L97.9468 37.4818L95.0211 40.4076L107.212 52.598L104.286 55.5238L86.0002 37.238L67.7145 55.5238L64.7888 52.598L76.9792 40.4076L74.0535 37.4818L37.4821 74.0533L40.4078 76.979L52.5983 64.7885L55.524 67.7142L37.2383 85.9999L55.524 104.286L52.5983 107.211L40.4078 95.0209L37.4821 97.9466Z" stroke="#9C2214" stroke-width="0.380952"/><path d="M76.0957 86.9143V102.762H83.9151V86.9143H76.0957Z" fill="#9C2214"/><path d="M89.1279 97.4796H97.4693V89.5558H89.1279V97.4796Z" fill="#9C2214"/><path d="M76.0952 86.9142V102.762H83.9146V86.9142H76.0952Z" fill="white"/><path d="M89.1276 97.4796H97.4689V89.5558H89.1276V97.4796Z" fill="white"/><path fill-rule="evenodd" clip-rule="evenodd" d="M69.8392 102.762H76.0952V86.9142H83.9146V102.762H102.161V83.2167H105.809L97.99 75.2929V65.2556H92.7771V70.0099L86 63.1428L66.1904 83.2167H69.8392V102.762ZM97.4689 97.4796H89.1276V89.5558H97.4689V97.4796Z" fill="#9C2214"/><path d="M76.0952 102.762H69.8392V83.2167H66.1904L86 63.1428L92.7771 70.0099V65.2556H97.99V75.2929L105.809 83.2167H102.161V102.762H83.9146M76.0952 102.762V86.9142H83.9146V102.762M76.0952 102.762H83.9146M89.1276 97.4796H97.4689V89.5558H89.1276V97.4796Z" stroke="#9C2214" stroke-width="0.380952"/><path d="M89.7362 20.08V28.8571H89.0109C88.9012 28.8571 88.8075 28.8388 88.7305 28.8022C88.6536 28.7616 88.5804 28.6966 88.5111 28.6072L83.6898 22.4144C83.7019 22.5323 83.7103 22.6501 83.7141 22.768C83.7225 22.8817 83.7263 22.9874 83.7263 23.0849V28.8571H82.4707V20.08H83.2143C83.2753 20.08 83.3263 20.084 83.3667 20.0921C83.4117 20.0962 83.452 20.1064 83.4886 20.1226C83.5252 20.1389 83.5595 20.1632 83.5922 20.1958C83.625 20.2283 83.6593 20.2689 83.6958 20.3177L88.5233 26.5165C88.5111 26.3906 88.5012 26.2666 88.4928 26.1447C88.489 26.0228 88.4867 25.9091 88.4867 25.8034V20.08H89.7362Z" fill="white"/><path d="M151.189 89.4195L151.183 90.5715H145.709V81.7943H151.183V82.9463H147.141V85.5916H150.372V86.7071H147.141V89.4195H151.189Z" fill="white"/><path d="M30.0087 81.7943L27.2781 90.5715H25.992L23.9318 84.269C23.9074 84.1996 23.883 84.125 23.8586 84.0435C23.8383 83.9619 23.818 83.8751 23.7977 83.7814C23.7774 83.8751 23.755 83.9619 23.7306 84.0435C23.7103 84.125 23.688 84.1996 23.6636 84.269L21.5851 90.5715H20.299L17.5684 81.7943H18.763C18.8849 81.7943 18.9865 81.8248 19.0678 81.8857C19.1531 81.9429 19.21 82.0221 19.2385 82.1235L20.8842 87.7494C20.9167 87.8713 20.9472 88.0031 20.9756 88.1455C21.004 88.288 21.0325 88.4358 21.0609 88.5905C21.0894 88.4358 21.1198 88.288 21.1524 88.1455C21.1889 87.9993 21.2276 87.8675 21.2682 87.7494L23.1516 82.1235C23.18 82.0419 23.2369 81.9673 23.3223 81.8979C23.4076 81.8286 23.5092 81.7943 23.627 81.7943H24.0415C24.1674 81.7943 24.2691 81.8271 24.3463 81.8918C24.4234 81.9528 24.4824 82.0297 24.523 82.1235L26.4004 87.7494C26.441 87.8675 26.4775 87.9955 26.5101 88.1334C26.5466 88.2675 26.5792 88.4099 26.6076 88.56C26.636 88.4099 26.6625 88.2675 26.6868 88.1334C26.7153 87.9955 26.7457 87.8675 26.7783 87.7494L28.4179 82.1235C28.4423 82.0343 28.4971 81.9566 28.5825 81.8918C28.6718 81.8271 28.7754 81.7943 28.8933 81.7943H30.0087Z" fill="white"/><path d="M37.567 42.1307L42.2217 46.7855L41.8371 47.1702C41.7789 47.2283 41.7197 47.2682 41.6593 47.2898C41.5968 47.3091 41.5235 47.3135 41.4395 47.3026L35.5984 46.5753C35.6674 46.6314 35.7342 46.6895 35.7988 46.7499C35.8635 46.806 35.9216 46.8598 35.9734 46.9116L39.0346 49.9727L38.3686 50.6386L33.7139 45.9838L34.1082 45.5894C34.1405 45.5571 34.1696 45.5324 34.1955 45.5151C34.2214 45.4936 34.2483 45.4774 34.2763 45.4666C34.3043 45.4559 34.3356 45.4505 34.3701 45.4505C34.4045 45.4505 34.4444 45.4537 34.4896 45.4601L40.3373 46.1874C40.264 46.1271 40.1929 46.0668 40.1239 46.0064C40.0571 45.9439 39.9957 45.8847 39.9396 45.8287L36.9043 42.7933L37.567 42.1307ZM44.7953 34.9023L48.0019 41.0053L47.3199 41.6873L42.8849 39.4375C42.8354 39.4138 42.7826 39.3869 42.7266 39.3567C42.6726 39.3244 42.6156 39.2889 42.5552 39.25C42.594 39.3103 42.6285 39.3686 42.6587 39.4246C42.691 39.4785 42.719 39.5302 42.7427 39.5798L44.9828 44.0244L44.3008 44.7065L38.1978 41.4998L38.8314 40.8663C38.896 40.8016 38.9661 40.7639 39.0415 40.7532C39.1169 40.7381 39.1891 40.7499 39.2581 40.7887L43.1145 42.8995C43.1963 42.9469 43.2825 43.0008 43.3731 43.0611C43.4636 43.1215 43.5573 43.1851 43.6543 43.2518C43.5875 43.1549 43.525 43.0601 43.4668 42.9674C43.4086 42.8704 43.359 42.7799 43.3181 42.6959L41.3334 38.7135C41.3053 38.6553 41.2957 38.5852 41.3043 38.5033C41.3129 38.4214 41.3485 38.3493 41.4109 38.2867L41.6307 38.0669C41.6976 38.0002 41.7686 37.9635 41.8441 37.9571C41.9174 37.9484 41.9895 37.9581 42.0607 37.9862L46.0399 39.9741C46.1239 40.015 46.2112 40.0636 46.3017 40.1196C46.3922 40.1713 46.4848 40.2295 46.5797 40.2941C46.515 40.1993 46.4536 40.1099 46.3954 40.0258C46.3373 39.9375 46.2855 39.8534 46.2403 39.7737L44.1262 35.9206C44.0918 35.8602 44.0799 35.7902 44.0906 35.7105C44.1036 35.6286 44.1413 35.5564 44.2038 35.4939L44.7953 34.9023Z" fill="white"/><path d="M131.394 39.09L126.739 43.7448L126.354 43.3601C126.296 43.302 126.256 43.2427 126.234 43.1824C126.215 43.1199 126.211 43.0466 126.221 42.9626L126.949 37.1214C126.893 37.1904 126.835 37.2572 126.775 37.3219C126.718 37.3865 126.665 37.4447 126.613 37.4964L123.552 40.5576L122.886 39.8917L127.54 35.2369L127.935 35.6313C127.967 35.6636 127.992 35.6927 128.01 35.7185C128.031 35.7444 128.047 35.7713 128.058 35.7994C128.068 35.8274 128.074 35.8587 128.074 35.8931C128.074 35.9276 128.071 35.9675 128.064 36.0127L127.337 41.8603C127.397 41.787 127.458 41.7159 127.518 41.6469C127.581 41.5802 127.64 41.5187 127.696 41.4627L130.731 38.4274L131.394 39.09ZM131.365 47.1492L130.751 47.7569L127.848 44.8541L132.503 40.1993L135.405 43.1021L134.795 43.713L132.652 41.5699L131.248 42.9728L132.962 44.686L132.371 45.2775L130.657 43.5643L129.219 45.0028L131.365 47.1492Z" fill="white"/><path d="M128.643 128.688L128.036 128.074L130.939 125.171L135.593 129.826L132.69 132.728L132.079 132.117L134.222 129.974L132.82 128.572L131.106 130.285L130.515 129.693L132.228 127.98L130.789 126.542L128.643 128.688ZM128.639 135.189C128.624 135.127 128.619 135.073 128.626 135.028C128.635 134.985 128.658 134.944 128.697 134.905C128.738 134.864 128.802 134.835 128.888 134.818C128.972 134.803 129.072 134.778 129.189 134.744C129.305 134.713 129.431 134.665 129.566 134.598C129.704 134.533 129.844 134.431 129.983 134.291C130.113 134.162 130.211 134.031 130.278 133.9C130.342 133.771 130.379 133.644 130.388 133.519C130.396 133.394 130.378 133.274 130.333 133.16C130.287 133.05 130.219 132.949 130.126 132.856C130.008 132.737 129.877 132.669 129.735 132.652C129.595 132.637 129.446 132.652 129.288 132.697C129.129 132.744 128.962 132.812 128.788 132.901C128.615 132.991 128.437 133.081 128.254 133.17C128.069 133.26 127.88 133.34 127.688 133.412C127.496 133.483 127.304 133.522 127.11 133.532C126.914 133.542 126.718 133.512 126.522 133.441C126.325 133.37 126.132 133.238 125.94 133.046C125.733 132.84 125.575 132.61 125.464 132.358C125.355 132.106 125.3 131.844 125.3 131.573C125.3 131.305 125.36 131.034 125.48 130.758C125.599 130.484 125.784 130.221 126.037 129.969C126.185 129.82 126.346 129.69 126.518 129.578C126.686 129.466 126.861 129.371 127.042 129.294C127.223 129.22 127.407 129.165 127.595 129.128C127.782 129.092 127.966 129.076 128.148 129.08L128.29 129.662C128.3 129.711 128.299 129.76 128.286 129.807C128.274 129.855 128.249 129.897 128.213 129.934C128.162 129.983 128.084 130.015 127.976 130.028C127.87 130.043 127.748 130.064 127.608 130.092C127.467 130.124 127.314 130.177 127.145 130.25C126.98 130.325 126.812 130.447 126.645 130.616C126.371 130.889 126.226 131.167 126.211 131.449C126.194 131.734 126.303 131.994 126.538 132.229C126.669 132.36 126.807 132.435 126.952 132.455C127.098 132.476 127.251 132.463 127.41 132.416C127.568 132.371 127.732 132.302 127.902 132.21C128.072 132.117 128.247 132.024 128.426 131.932C128.606 131.841 128.792 131.759 128.981 131.685C129.173 131.615 129.368 131.575 129.566 131.566C129.765 131.562 129.965 131.599 130.168 131.676C130.373 131.756 130.581 131.901 130.792 132.112C130.96 132.28 131.09 132.476 131.183 132.697C131.273 132.921 131.317 133.157 131.312 133.402C131.308 133.652 131.25 133.906 131.138 134.165C131.026 134.424 130.851 134.671 130.614 134.908C130.347 135.176 130.06 135.378 129.754 135.516C129.446 135.656 129.134 135.73 128.817 135.736L128.639 135.189Z" fill="white"/><path d="M42.4138 133.033C42.4763 133.019 42.5302 133.014 42.5754 133.02C42.6186 133.029 42.6596 133.053 42.6983 133.092C42.7392 133.132 42.7683 133.196 42.7856 133.282C42.8007 133.366 42.8254 133.467 42.8599 133.583C42.8901 133.699 42.9386 133.826 43.0054 133.961C43.0701 134.099 43.1724 134.238 43.3125 134.378C43.4418 134.508 43.5722 134.606 43.7036 134.672C43.8329 134.737 43.96 134.773 44.0851 134.783C44.21 134.791 44.3296 134.773 44.4439 134.727C44.5537 134.682 44.6551 134.613 44.7477 134.52C44.8663 134.402 44.9341 134.271 44.9514 134.13C44.9664 133.989 44.9514 133.841 44.9061 133.683C44.8587 133.524 44.7908 133.357 44.7025 133.182C44.6119 133.01 44.5225 132.832 44.4342 132.648C44.3437 132.463 44.2628 132.275 44.1917 132.083C44.1206 131.891 44.0807 131.698 44.0721 131.505C44.0613 131.308 44.0915 131.112 44.1626 130.916C44.2337 130.72 44.3652 130.526 44.557 130.335C44.7639 130.127 44.9933 129.969 45.2455 129.859C45.4977 129.749 45.7594 129.695 46.031 129.695C46.2983 129.695 46.5697 129.755 46.8456 129.875C47.1193 129.994 47.3822 130.179 47.6343 130.431C47.783 130.58 47.9134 130.741 48.0254 130.913C48.1375 131.081 48.2324 131.256 48.3099 131.436C48.3832 131.618 48.4381 131.802 48.4748 131.989C48.5114 132.177 48.5276 132.361 48.5232 132.542L47.9414 132.684C47.8919 132.695 47.8433 132.694 47.7959 132.681C47.7485 132.668 47.7065 132.643 47.6698 132.607C47.6203 132.557 47.5891 132.479 47.5761 132.371C47.561 132.265 47.5395 132.143 47.5115 132.002C47.4791 131.862 47.4263 131.708 47.3531 131.54C47.2777 131.374 47.1559 131.207 46.9878 131.039C46.7141 130.765 46.4362 130.621 46.1538 130.606C45.8694 130.588 45.6097 130.697 45.3748 130.933C45.2433 131.064 45.1679 131.202 45.1485 131.346C45.127 131.493 45.1399 131.646 45.1873 131.805C45.2326 131.963 45.3015 132.127 45.3942 132.296C45.4868 132.466 45.5796 132.642 45.6722 132.82C45.7627 133.001 45.8446 133.186 45.9178 133.376C45.989 133.568 46.0288 133.763 46.0375 133.961C46.0418 134.159 46.0052 134.36 45.9276 134.562C45.8478 134.767 45.7024 134.975 45.4912 135.186C45.3231 135.355 45.128 135.485 44.9061 135.577C44.682 135.668 44.4471 135.711 44.2014 135.707C43.9514 135.702 43.6971 135.644 43.4385 135.532C43.1799 135.42 42.9321 135.246 42.6951 135.009C42.4279 134.741 42.2253 134.455 42.0874 134.149C41.9473 133.841 41.874 133.528 41.8676 133.212L42.4138 133.033ZM34.4297 126.639L40.5326 123.433L41.2147 124.115L38.9648 128.55C38.9412 128.6 38.9142 128.652 38.884 128.709C38.8517 128.762 38.8161 128.819 38.7773 128.88C38.8377 128.841 38.8959 128.806 38.9519 128.776C39.0058 128.744 39.0575 128.716 39.1071 128.693L43.5517 126.452L44.2338 127.135L41.0272 133.237L40.3936 132.604C40.329 132.539 40.2912 132.469 40.2804 132.393C40.2653 132.318 40.2772 132.246 40.316 132.177L42.4268 128.321C42.4743 128.239 42.5281 128.152 42.5885 128.062C42.6488 127.971 42.7123 127.877 42.7792 127.781C42.6822 127.848 42.5874 127.91 42.4947 127.968C42.3978 128.027 42.3072 128.076 42.2232 128.117L38.2407 130.101C38.1826 130.13 38.1125 130.14 38.0307 130.13C37.9488 130.122 37.8765 130.087 37.8141 130.024L37.5943 129.804C37.5274 129.737 37.4908 129.666 37.4844 129.591C37.4757 129.518 37.4855 129.445 37.5134 129.375L39.5015 125.395C39.5424 125.311 39.5908 125.224 39.6469 125.133C39.6986 125.043 39.7568 124.95 39.8215 124.856C39.7266 124.92 39.6372 124.981 39.5531 125.039C39.4648 125.098 39.3808 125.15 39.301 125.195L35.4479 127.309C35.3876 127.343 35.3175 127.355 35.2378 127.344C35.1559 127.331 35.0837 127.294 35.0212 127.231L34.4297 126.639Z" fill="white"/><path d="M88.5839 146.532C88.5389 146.605 88.4924 146.66 88.4437 146.696C88.3949 146.729 88.334 146.745 88.2608 146.745C88.1839 146.745 88.0962 146.712 87.9987 146.648C87.905 146.583 87.7877 146.511 87.6452 146.434C87.5073 146.353 87.3427 146.28 87.1515 146.215C86.9602 146.146 86.7332 146.111 86.4688 146.111C86.225 146.111 86.0094 146.142 85.8227 146.203C85.6399 146.264 85.4852 146.349 85.3595 146.459C85.2338 146.568 85.1378 146.699 85.073 146.849C85.0121 146.995 84.9816 147.156 84.9816 147.33C84.9816 147.554 85.0403 147.741 85.1583 147.891C85.2764 148.037 85.4303 148.163 85.6216 148.269C85.8166 148.375 86.0384 148.468 86.286 148.549C86.5336 148.626 86.7858 148.71 87.0418 148.799C87.3016 148.888 87.5561 148.991 87.8037 149.104C88.0513 149.218 88.2707 149.362 88.462 149.537C88.657 149.711 88.8132 149.925 88.9313 150.177C89.0494 150.429 89.1081 150.735 89.1081 151.097C89.1081 151.487 89.041 151.853 88.9069 152.194C88.7728 152.536 88.5778 152.834 88.3218 153.09C88.0696 153.343 87.7572 153.541 87.3831 153.688C87.0136 153.834 86.5907 153.907 86.1153 153.907C85.8349 153.907 85.5606 153.879 85.2924 153.822C85.0281 153.769 84.7743 153.694 84.5305 153.596C84.2905 153.495 84.065 153.373 83.854 153.231C83.6429 153.088 83.454 152.93 83.2871 152.755L83.7016 152.072C83.7382 152.015 83.7846 151.971 83.8418 151.938C83.8989 151.906 83.9614 151.89 84.0307 151.89C84.1244 151.89 84.2281 151.935 84.3416 152.024C84.4551 152.109 84.5915 152.204 84.75 152.31C84.9123 152.412 85.1073 152.508 85.3351 152.597C85.5629 152.682 85.8349 152.725 86.1519 152.725C86.6677 152.725 87.0662 152.599 87.3465 152.347C87.6307 152.095 87.7732 151.747 87.7732 151.304C87.7732 151.057 87.7145 150.856 87.5964 150.701C87.4783 150.543 87.3222 150.411 87.1271 150.305C86.9359 150.199 86.7164 150.11 86.4688 150.037C86.2212 149.964 85.969 149.887 85.713 149.805C85.457 149.72 85.2048 149.622 84.9572 149.512C84.7096 149.399 84.4879 149.253 84.2928 149.074C84.1016 148.891 83.9477 148.668 83.8296 148.403C83.7115 148.135 83.6528 147.802 83.6528 147.404C83.6528 147.087 83.7138 146.78 83.8357 146.483C83.9614 146.187 84.1427 145.925 84.3782 145.697C84.6182 145.465 84.9122 145.28 85.262 145.142C85.6117 145.004 86.0094 144.935 86.4566 144.935C86.9603 144.935 87.422 145.014 87.8403 145.173C88.2631 145.331 88.6265 145.557 88.9313 145.849L88.5839 146.532Z" fill="white"/><path d="M86 166C130.183 166 166 130.183 166 86C166 41.8172 130.183 6 86 6C41.8172 6 6 41.8172 6 86C6 130.183 41.8172 166 86 166Z" stroke="#9C2214"/></svg>