<svg xmlns="http://www.w3.org/2000/svg" width="68" height="68" viewBox="0 0 68 68" fill="none"><path d="M62.6586 2H5.33333C3.49239 2 2 3.47608 2 5.29692V62.7031C2 64.5239 3.49239 66 5.33333 66H62.6586C64.4996 66 65.992 64.5239 65.992 62.7031V5.29692C65.992 3.47608 64.4996 2 62.6586 2Z" stroke="#E2E2E2" stroke-width="2.5" stroke-miterlimit="10" stroke-linecap="round"/><path d="M34.4498 2.2384V65.9683" stroke="#E2E2E2" stroke-width="2.5" stroke-miterlimit="10" stroke-linecap="round"/><path d="M2.40161 33.5392H66" stroke="#E2E2E2" stroke-width="2.5" stroke-miterlimit="10" stroke-linecap="round"/><path d="M18.9237 10.9294V27.0883" stroke="#E2E2E2" stroke-width="2.5" stroke-miterlimit="10" stroke-linecap="round"/><path d="M10.6265 19.0089H26.9639" stroke="#E2E2E2" stroke-width="2.5" stroke-miterlimit="10" stroke-linecap="round"/><path d="M24.6587 44.3912L13.1085 55.8153" stroke="#E2E2E2" stroke-width="2.5" stroke-miterlimit="10" stroke-linecap="round"/><path d="M13.0201 44.2959L24.5703 55.7279" stroke="#E2E2E2" stroke-width="2.5" stroke-miterlimit="10" stroke-linecap="round"/><path d="M42.0402 19.0089H58.3775" stroke="#E2E2E2" stroke-width="2.5" stroke-miterlimit="10" stroke-linecap="round"/><path d="M41.9277 49.5868H58.2651" stroke="#E2E2E2" stroke-width="2.5" stroke-miterlimit="10" stroke-linecap="round"/><path d="M49.5502 45.2333H50.6426" stroke="#E2E2E2" stroke-width="2.5" stroke-miterlimit="10" stroke-linecap="round"/><path d="M49.5502 54.4409H50.6426" stroke="#E2E2E2" stroke-width="2.5" stroke-miterlimit="10" stroke-linecap="round"/></svg>